<?xml version="1.0" encoding="utf-8"?>
<!-- Generator: Adobe Illustrator 19.0.0, SVG Export Plug-In . SVG Version: 6.00 Build 0)  -->
<svg version="1.1" id="图层_1" xmlns="http://www.w3.org/2000/svg" xmlns:xlink="http://www.w3.org/1999/xlink" x="0px" y="0px"
	 viewBox="-447 449 128 128" style="enable-background:new -447 449 128 128;" xml:space="preserve">
<style type="text/css">
	.st0{fill:#FF8932;}
</style>
<path class="st0" d="M-383,450.3c-34.6,0-62.7,28.1-62.7,62.7c0,34.6,28.1,62.7,62.7,62.7c34.6,0,62.7-28.1,62.7-62.7
	C-320.3,478.4-348.4,450.3-383,450.3z M-343.9,497.6l-43.9,42.3c-0.6,0.6-1.2,1-1.9,1.4c-2.8,2-6.6,1.7-9.1-0.8l-18.8-18.8
	c-2.8-2.8-2.8-7.2,0-10c2.8-2.8,7.2-2.8,10,0l14.2,14.2l39.7-38.2c2.8-2.8,7.2-2.8,10,0C-341.2,490.4-341.2,494.8-343.9,497.6z"/>
</svg>
